<?xml version="1.0" standalone="no"?>
<!DOCTYPE svg PUBLIC "-//W3C//DTD SVG 20010904//EN"
 "http://www.w3.org/TR/2001/REC-SVG-20010904/DTD/svg10.dtd">
<svg version="1.0" xmlns="http://www.w3.org/2000/svg"
 width="300.000000pt" height="300.000000pt" viewBox="0 0 300.000000 300.000000"
 preserveAspectRatio="xMidYMid meet">
<metadata>
Created by potrace 1.14, written by Peter Selinger 2001-2017
</metadata>
<g transform="translate(0.000000,300.000000) scale(0.100000,-0.100000)"
fill="#000000" stroke="none">
<path d="M298 2639 c-31 -8 -61 -35 -73 -64 -12 -30 -15 -98 -14 -345 0 -124
0 -232 0 -240 0 -8 0 -116 0 -240 1 -124 1 -232 0 -240 0 -8 0 -116 0 -240 0
-124 1 -229 1 -235 -1 -5 -1 -126 -2 -267 -1 -142 0 -261 3 -265 2 -4 4 -22 3
-40 0 -17 1 -30 3 -28 4 5 31 -21 31 -30 0 -3 -5 -3 -12 1 -7 4 -8 3 -4 -4 4
-6 13 -9 20 -6 7 3 20 -1 27 -8 8 -7 34 -13 57 -13 24 0 46 -3 49 -8 2 -4 9
-4 16 0 17 10 406 10 400 -1 -4 -5 0 -6 7 -1 19 12 480 12 473 1 -4 -5 0 -6 7
-1 19 12 480 12 473 1 -4 -5 0 -6 7 -1 19 12 480 12 473 1 -4 -5 0 -6 7 -1 18
11 377 13 408 3 15 -5 21 -4 17 2 -3 6 4 10 17 10 13 0 29 5 36 12 7 7 12 9
12 4 0 -11 25 16 38 41 7 12 12 31 12 43 0 13 4 19 12 14 7 -5 8 -3 2 7 -14
24 -16 51 -2 43 10 -6 10 -4 2 7 -6 8 -11 23 -11 34 0 11 5 26 11 34 8 11 8
13 0 8 -15 -9 -14 85 1 95 7 5 7 8 0 8 -14 0 -18 47 -5 55 6 4 7 12 3 18 -12
20 -11 97 1 90 6 -4 5 1 -3 10 -11 14 -11 20 0 34 8 9 9 14 3 10 -15 -9 -14
85 1 95 7 5 6 8 -1 8 -6 0 -11 16 -11 35 0 19 5 35 11 35 7 0 7 3 1 8 -14 10
-15 56 -1 64 8 6 8 8 -1 8 -14 0 -14 39 1 59 8 11 8 13 0 8 -15 -9 -14 85 1
95 7 5 7 8 0 8 -13 0 -14 189 -1 209 6 9 5 12 -1 8 -14 -9 -12 85 2 95 7 5 6
8 -1 8 -14 0 -14 70 0 70 7 0 7 3 1 8 -14 10 -15 56 -1 64 8 6 8 8 -1 8 -14 0
-14 39 1 59 8 11 8 13 0 8 -8 -4 -11 9 -10 43 0 28 5 50 11 50 7 0 7 3 0 8
-14 9 -15 123 -2 115 6 -4 7 -1 1 8 -14 24 -16 51 -2 43 9 -5 9 -2 -1 9 -11
14 -11 20 0 34 8 9 9 14 3 10 -8 -4 -11 9 -10 43 0 28 5 50 11 50 7 0 6 3 -1
8 -6 4 -10 21 -10 37 0 17 4 33 10 37 7 5 7 8 1 8 -5 0 -11 30 -12 68 -2 37
-4 74 -6 83 -5 29 -42 66 -77 77 -40 12 -2367 14 -2412 1z"/>
</g>
</svg>
