<?xml version="1.0" standalone="no"?>
<!DOCTYPE svg PUBLIC "-//W3C//DTD SVG 20010904//EN"
 "http://www.w3.org/TR/2001/REC-SVG-20010904/DTD/svg10.dtd">
<svg version="1.0" xmlns="http://www.w3.org/2000/svg"
 width="260.000000pt" height="260.000000pt" viewBox="0 0 260.000000 260.000000"
 preserveAspectRatio="xMidYMid meet">
<metadata>
Created by potrace 1.14, written by Peter Selinger 2001-2017
</metadata>
<g transform="translate(0.000000,260.000000) scale(0.100000,-0.100000)"
fill="#000000" stroke="none">
<path d="M0 1300 l0 -1300 1300 0 1300 0 0 1300 0 1300 -1300 0 -1300 0 0
-1300z m588 839 l213 -82 -3 -51 -3 -51 -205 -78 c-113 -44 -211 -80 -219 -80
-12 -2 -17 35 -12 92 1 5 69 32 151 62 83 29 147 56 143 60 -5 4 -69 28 -143
54 -74 26 -139 51 -144 56 -12 11 -13 99 -1 99 6 0 106 -36 223 -81z m650
-436 l3 -43 -220 0 -221 0 0 38 c0 21 3 42 7 46 4 3 102 5 217 4 l211 -3 3
-42z"/>
</g>
</svg>
